<svg xmlns="http://www.w3.org/2000/svg" xmlns:xlink="http://www.w3.org/1999/xlink" viewBox="1557.5 1401.5 201.105 80.9"><defs><style>.a,.c{fill:#fff;}.b{clip-path:url(#a);}.c,.d{stroke:#ec6525;stroke-miterlimit:10;}.d{fill:none;}.e{clip-path:url(#b);}.f{clip-path:url(#c);}.g{clip-path:url(#d);}.h{clip-path:url(#e);}.i{clip-path:url(#f);}.j{clip-path:url(#g);}.k{clip-path:url(#h);}.l{clip-path:url(#i);}.m{clip-path:url(#j);}.n{clip-path:url(#k);}.o{clip-path:url(#l);}</style><clipPath id="a"><path d="M153.8,42.7c-6,1.9-11.9,5.1-14.9,10.8a24.7,24.7,0,0,0-1.9,5.4,15.2,15.2,0,0,0,1.4,11.6,16.408,16.408,0,0,0,8.5,7.2c9.9,3.9,24.8.5,29.5-10,1.2-2.6,1.7-7.9.3-10.5-2.1-4.1-8.6-6.7-13.9-6.4-5.4.2-10.7,2.4-13.7,6-3,3.5-3,8.2-.4,11a11.242,11.242,0,0,0,8.8,3.2c4.1-.1,7.7-1.7,9.7-4.3,2-2.5,2.1-5.7-.2-7.8a7.851,7.851,0,0,0-8.4-.8c-2.5,1-4.1,3.9-2.4,5.6-.4-2.1,1.8-3.3,3.4-3.4,1.7-.3,3.1.5,3.3,1.2.6,1.5-1.2,3.9-5.2,4-.9,0-2.5-.2-3.2-1.1-.9-.9-1.1-2.9.4-4.7,1.4-1.8,4.6-3.2,8-3.3,3.3-.2,6.4,1.1,7.5,3.3,2.2,4.3-.5,8.5-4,11-4.2,3-8.2,3.7-13.2,2.8a14.427,14.427,0,0,1-4.5-1.7A9.658,9.658,0,0,1,145,68a10.684,10.684,0,0,1-.9-8.2c.9-3.5,2.2-6.7,5.3-8.9,6.2-4.4,16-5.9,23.1-3.2,3.9,1.5,7.3,4.7,11.2,5.9-1.3-5.4-6.9-10.1-11.9-11.5a31.5,31.5,0,0,0-7.5-1,37.915,37.915,0,0,0-10.5,1.6"/></clipPath><clipPath id="b"><path d="M128.6,24.9c-4.1,1.9,2,9.5,3.5,11.3,3.9,4.7,6.7,8.9,8,8.2s-.7-5.4-3.3-11c-.7-1.5-2.2-5.1-4.1-7.2a4.5,4.5,0,0,0-2.9-1.6,2.663,2.663,0,0,0-1.2.3"/></clipPath><clipPath id="c"><path d="M141.6,11.1c-2.5,0-3,3.3-3,5.3a33.174,33.174,0,0,0,2.2,9.8c2.6,7.3,4.2,13.6,6,13.2,1.9-.4,1.5-6.8.8-14.5a60.274,60.274,0,0,0-1.4-8.5,6.356,6.356,0,0,0-.6-1.8c-.7-1.8-1.9-3.5-4-3.5Z"/></clipPath><clipPath id="d"><path d="M167.8,18.2A117.708,117.708,0,0,0,163.9,31c-.3,1.1-1.5,4.2.1,4.9,1.7.8,5.2-4.6,9.1-11.4.9-1.6,1.8-3.2,2.6-4.8a32.4,32.4,0,0,0,1.9-4.7c.6-2.3.5-4.5-1.7-5.4a5.019,5.019,0,0,0-1.2-.2c-3.7,0-6,6.3-6.9,8.8"/></clipPath><clipPath id="e"><path d="M189.1,52.1c-1.7,1.2-10.4,5.9-9,8.7.9,1.7,5.6.3,11.2-1.6a78.054,78.054,0,0,0,9.2-4.7c-1.1-3.2-3.1-4.5-5.5-4.5a10.876,10.876,0,0,0-5.9,2.1"/></clipPath><clipPath id="f"><path d="M157.2,3.6c-5,.5-4.5,10.1-4.6,13.4,0,4.3.4,8.7.7,13,.1,1.2-.1,7.8,2,8,2,.1,3.4-7.4,4.8-16.6.4-2.5.6-5,.8-7.5a27.85,27.85,0,0,0,.1-5,8.018,8.018,0,0,0-.5-2.1c-.5-1.3-1.6-3.1-3.2-3.1a.1.1,0,0,0-.1-.1"/></clipPath><clipPath id="g"><path d="M9.2,43.1c0-2.8.9-5,3.6-5s3.6,2.2,3.6,5v3.1H9.2ZM.5,47v7.7c0,9.4,1.4,15.5,12.7,15.5,6.8,0,11.3-4,11.3-10.7,0-3.3-1.8-4.1-4.2-4.1-2.3,0-4,.8-4.1,4.4-.1,2-1.4,3.8-3.2,3.8-3.4,0-3.8-3.5-3.8-7.9V52H20.1c4.2,0,4.6-2.6,4.6-5.9,0-9.7-2.9-14.5-11.6-14.5C1.9,31.5.5,37.6.5,47"/></clipPath><clipPath id="h"><path d="M30.4,53.7V48.9c0-8.1.8-10.4,3.6-10.4,2,0,4.1,1.5,4.1,8.9v7c0,5.3-.9,9-4.2,9-3.1,0-3.5-3.6-3.5-9.7m7.7-29.4V35.8H38a8.176,8.176,0,0,0-7.4-4.3c-7.5,0-8.9,6.8-8.9,14.4v9.9c0,7.6,1.4,14.4,8.9,14.4A7.994,7.994,0,0,0,38,65.9h.1a4.069,4.069,0,0,0,4.2,4.3c2.5,0,4.2-1.6,4.2-5v-41c0-3.4-1.6-5-4.2-5-2.6.1-4.2,1.7-4.2,5.1"/></clipPath><clipPath id="i"><path d="M59.4,36.5V56.4C59.4,61,58,63,55,63c-2.1,0-3.2-1.2-3.2-3.9V36.5c0-3.4-1.6-5-4.2-5s-4.2,1.6-4.2,5V61.1c0,6.3,3.3,9.1,8,9.1a8.308,8.308,0,0,0,7.8-4.8h.1c0,3.2,1.6,4.8,4.2,4.8,2.5,0,4.2-1.6,4.2-5V36.5c0-3.4-1.6-5-4.2-5-2.5,0-4.1,1.6-4.1,5"/></clipPath><clipPath id="j"><path d="M115.5,54.7V47.4c0-7.4,2.1-9,4.1-9,2.8,0,3.6,2.3,3.6,10.4V54c0,6.1-.4,9.7-3.5,9.7-3.3,0-4.2-3.7-4.2-9m.2-18.2h-.1c0-3.4-1.6-5-4.2-5s-4.2,1.6-4.2,5v42c0,3.4,1.6,5,4.2,5s4.2-1.6,4.2-5V66.1h.1a7.984,7.984,0,0,0,7.4,4.2c7.5,0,8.9-6.8,8.9-14.4V46c0-7.6-1.4-14.4-8.9-14.4a7.992,7.992,0,0,0-7.4,4.9"/></clipPath><clipPath id="k"><path d="M94.1,59.3c0-3.1.7-4.4,4.4-7l2.9-2v6.5c0,3.9-1.6,6.9-4.4,6.9-1.7,0-2.9-1.6-2.9-4.4M85.8,41.4c0,2.5,2.5,3.4,4.4,3.4,2.2,0,3.8-1,4-2.7.3-2.9,1.2-4.4,4.1-4.4,2.1,0,3.2,1.7,3.2,3.7,0,1.6-.8,2.9-2.7,3.9l-7.4,3.9c-4.4,2.3-5.9,5.5-5.9,11.1,0,7,3.7,9.9,8.6,9.9a7.975,7.975,0,0,0,7.6-4.6l.1-.1c0,3.6,2.1,4.7,4.4,4.7,2.7,0,4.2-1.1,4.2-3.3,0-1.2-.5-3.1-.5-5.5v-19c0-6-1.2-10.9-12.4-10.9-6.5,0-11.7,3.5-11.7,9.9"/></clipPath><clipPath id="l"><path d="M65.4,47.5v6.8c0,8.9,1.1,16,12.2,16,9.8,0,11.5-7.8,11.5-11.5,0-3.1-1.6-4.8-4.1-4.8-2.7,0-4,1.3-4.2,6-.1,2.9-1.6,3.8-3.1,3.8-2.7,0-3.5-2.6-3.5-8.7V46.9c0-4.9.2-8.7,3.5-8.7,1.8,0,3.1,1.2,3.1,3.6,0,3.4,1.4,4.7,4.2,4.7,2.3,0,4.1-1.4,4.1-4.7s-2-10.1-11.5-10.1c-11.1-.2-12.2,6.9-12.2,15.8"/></clipPath></defs><g transform="translate(1557.5 1398.4)"><path class="a" d="M153.8,42.7c-6,1.9-11.9,5.1-14.9,10.8a24.7,24.7,0,0,0-1.9,5.4,15.2,15.2,0,0,0,1.4,11.6,16.408,16.408,0,0,0,8.5,7.2c9.9,3.9,24.8.5,29.5-10,1.2-2.6,1.7-7.9.3-10.5-2.1-4.1-8.6-6.7-13.9-6.4-5.4.2-10.7,2.4-13.7,6-3,3.5-3,8.2-.4,11a11.242,11.242,0,0,0,8.8,3.2c4.1-.1,7.7-1.7,9.7-4.3,2-2.5,2.1-5.7-.2-7.8a7.851,7.851,0,0,0-8.4-.8c-2.5,1-4.1,3.9-2.4,5.6-.4-2.1,1.8-3.3,3.4-3.4,1.7-.3,3.1.5,3.3,1.2.6,1.5-1.2,3.9-5.2,4-.9,0-2.5-.2-3.2-1.1-.9-.9-1.1-2.9.4-4.7,1.4-1.8,4.6-3.2,8-3.3,3.3-.2,6.4,1.1,7.5,3.3,2.2,4.3-.5,8.5-4,11-4.2,3-8.2,3.7-13.2,2.8a14.427,14.427,0,0,1-4.5-1.7A9.658,9.658,0,0,1,145,68a10.684,10.684,0,0,1-.9-8.2c.9-3.5,2.2-6.7,5.3-8.9,6.2-4.4,16-5.9,23.1-3.2,3.9,1.5,7.3,4.7,11.2,5.9-1.3-5.4-6.9-10.1-11.9-11.5a31.5,31.5,0,0,0-7.5-1,37.915,37.915,0,0,0-10.5,1.6"/><g class="b"><path class="c" d="M129.3,42.1,137,88.5l52.9-7.8-7.7-46.4Z"/></g><path class="d" d="M153.8,42.7c-6,1.9-11.9,5.1-14.9,10.8a24.7,24.7,0,0,0-1.9,5.4,15.2,15.2,0,0,0,1.4,11.6,16.408,16.408,0,0,0,8.5,7.2c9.9,3.9,24.8.5,29.5-10,1.2-2.6,1.7-7.9.3-10.5-2.1-4.1-8.6-6.7-13.9-6.4-5.4.2-10.7,2.4-13.7,6-3,3.5-3,8.2-.4,11a11.242,11.242,0,0,0,8.8,3.2c4.1-.1,7.7-1.7,9.7-4.3,2-2.5,2.1-5.7-.2-7.8a7.851,7.851,0,0,0-8.4-.8c-2.5,1-4.1,3.9-2.4,5.6-.4-2.1,1.8-3.3,3.4-3.4,1.7-.3,3.1.5,3.3,1.2.6,1.5-1.2,3.9-5.2,4-.9,0-2.5-.2-3.2-1.1-.9-.9-1.1-2.9.4-4.7,1.4-1.8,4.6-3.2,8-3.3,3.3-.2,6.4,1.1,7.5,3.3,2.2,4.3-.5,8.5-4,11-4.2,3-8.2,3.7-13.2,2.8a14.427,14.427,0,0,1-4.5-1.7A9.658,9.658,0,0,1,145,68a10.684,10.684,0,0,1-.9-8.2c.9-3.5,2.2-6.7,5.3-8.9,6.2-4.4,16-5.9,23.1-3.2,3.9,1.5,7.3,4.7,11.2,5.9-1.3-5.4-6.9-10.1-11.9-11.5a31.5,31.5,0,0,0-7.5-1,37.915,37.915,0,0,0-10.5,1.6"/><path class="a" d="M128.6,24.9c-4.1,1.9,2,9.5,3.5,11.3,3.9,4.7,6.7,8.9,8,8.2s-.7-5.4-3.3-11c-.7-1.5-2.2-5.1-4.1-7.2a4.5,4.5,0,0,0-2.9-1.6,2.663,2.663,0,0,0-1.2.3"/><g class="e"><rect class="c" width="26.6" height="26" transform="matrix(0.627, -0.779, 0.779, 0.627, 114.501, 36.987)"/></g><path class="d" d="M128.6,24.9c-4.1,1.9,2,9.5,3.5,11.3,3.9,4.7,6.7,8.9,8,8.2s-.7-5.4-3.3-11c-.7-1.5-2.2-5.1-4.1-7.2a4.5,4.5,0,0,0-2.9-1.6,2.663,2.663,0,0,0-1.2.3"/><path class="a" d="M141.6,11.1c-2.5,0-3,3.3-3,5.3a33.174,33.174,0,0,0,2.2,9.8c2.6,7.3,4.2,13.6,6,13.2,1.9-.4,1.5-6.8.8-14.5a60.274,60.274,0,0,0-1.4-8.5,6.356,6.356,0,0,0-.6-1.8c-.7-1.8-1.9-3.5-4-3.5Z"/><g class="f"><path class="c" d="M126,18.8l15.3,25.5L161.2,32,146,6.6Z"/></g><path class="d" d="M141.6,11.1c-2.5,0-3,3.3-3,5.3a33.174,33.174,0,0,0,2.2,9.8c2.6,7.3,4.2,13.6,6,13.2,1.9-.4,1.5-6.8.8-14.5a60.274,60.274,0,0,0-1.4-8.5,6.356,6.356,0,0,0-.6-1.8c-.7-1.8-1.9-3.5-4-3.5Z"/><path class="a" d="M167.8,18.2A117.708,117.708,0,0,0,163.9,31c-.3,1.1-1.5,4.2.1,4.9,1.7.8,5.2-4.6,9.1-11.4.9-1.6,1.8-3.2,2.6-4.8a32.4,32.4,0,0,0,1.9-4.7c.6-2.3.5-4.5-1.7-5.4a5.019,5.019,0,0,0-1.2-.2c-3.7,0-6,6.3-6.9,8.8"/><g class="g"><path class="c" d="M162.5,8.3l-2.3,28.2,17.7,1.3,2.3-28.2Z"/></g><path class="d" d="M167.8,18.2A117.708,117.708,0,0,0,163.9,31c-.3,1.1-1.5,4.2.1,4.9,1.7.8,5.2-4.6,9.1-11.4.9-1.6,1.8-3.2,2.6-4.8a32.4,32.4,0,0,0,1.9-4.7c.6-2.3.5-4.5-1.7-5.4a5.019,5.019,0,0,0-1.2-.2c-3.7,0-6,6.3-6.9,8.8"/><path class="a" d="M189.1,52.1c-1.7,1.2-10.4,5.9-9,8.7.9,1.7,5.6.3,11.2-1.6a78.054,78.054,0,0,0,9.2-4.7c-1.1-3.2-3.1-4.5-5.5-4.5a10.876,10.876,0,0,0-5.9,2.1"/><g class="h"><path class="c" d="M188.6,37,173.5,56.8l17,18.7,15.2-19.8Z"/></g><path class="d" d="M189.1,52.1c-1.7,1.2-10.4,5.9-9,8.7.9,1.7,5.6.3,11.2-1.6a78.054,78.054,0,0,0,9.2-4.7c-1.1-3.2-3.1-4.5-5.5-4.5a10.876,10.876,0,0,0-5.9,2.1"/><path class="a" d="M157.2,3.6c-5,.5-4.5,10.1-4.6,13.4,0,4.3.4,8.7.7,13,.1,1.2-.1,7.8,2,8,2,.1,3.4-7.4,4.8-16.6.4-2.5.6-5,.8-7.5a27.85,27.85,0,0,0,.1-5,8.018,8.018,0,0,0-.5-2.1c-.5-1.3-1.6-3.1-3.2-3.1a.1.1,0,0,0-.1-.1"/><g class="i"><path class="c" d="M144.2,6.4,152.9,41l16.3-5.7L160.4.7Z"/></g><path class="d" d="M157.2,3.6c-5,.5-4.5,10.1-4.6,13.4,0,4.3.4,8.7.7,13,.1,1.2-.1,7.8,2,8,2,.1,3.4-7.4,4.8-16.6.4-2.5.6-5,.8-7.5a27.85,27.85,0,0,0,.1-5,8.018,8.018,0,0,0-.5-2.1c-.5-1.3-1.6-3.1-3.2-3.1a.1.1,0,0,0-.1-.1"/><path class="a" d="M9.2,43.1c0-2.8.9-5,3.6-5s3.6,2.2,3.6,5v3.1H9.2ZM.5,47v7.7c0,9.4,1.4,15.5,12.7,15.5,6.8,0,11.3-4,11.3-10.7,0-3.3-1.8-4.1-4.2-4.1-2.3,0-4,.8-4.1,4.4-.1,2-1.4,3.8-3.2,3.8-3.4,0-3.8-3.5-3.8-7.9V52H20.1c4.2,0,4.6-2.6,4.6-5.9,0-9.7-2.9-14.5-11.6-14.5C1.9,31.5.5,37.6.5,47"/><g class="j"><rect class="c" width="24.3" height="38.7" transform="translate(0.5 31.5)"/></g><path class="d" d="M9.2,43.1c0-2.8.9-5,3.6-5s3.6,2.2,3.6,5v3.1H9.2ZM.5,47v7.7c0,9.4,1.4,15.5,12.7,15.5,6.8,0,11.3-4,11.3-10.7,0-3.3-1.8-4.1-4.2-4.1-2.3,0-4,.8-4.1,4.4-.1,2-1.4,3.8-3.2,3.8-3.4,0-3.8-3.5-3.8-7.9V52H20.1c4.2,0,4.6-2.6,4.6-5.9,0-9.7-2.9-14.5-11.6-14.5C1.9,31.5.5,37.6.5,47"/><path class="a" d="M30.4,53.7V48.9c0-8.1.8-10.4,3.6-10.4,2,0,4.1,1.5,4.1,8.9v7c0,5.3-.9,9-4.2,9-3.1,0-3.5-3.6-3.5-9.7m7.7-29.4V35.8H38a8.176,8.176,0,0,0-7.4-4.3c-7.5,0-8.9,6.8-8.9,14.4v9.9c0,7.6,1.4,14.4,8.9,14.4A7.994,7.994,0,0,0,38,65.9h.1a4.069,4.069,0,0,0,4.2,4.3c2.5,0,4.2-1.6,4.2-5v-41c0-3.4-1.6-5-4.2-5-2.6.1-4.2,1.7-4.2,5.1"/><g class="k"><rect class="c" width="24.7" height="50.9" transform="translate(21.7 19.3)"/></g><path class="d" d="M30.4,53.7V48.9c0-8.1.8-10.4,3.6-10.4,2,0,4.1,1.5,4.1,8.9v7c0,5.3-.9,9-4.2,9-3.1,0-3.5-3.6-3.5-9.7m7.7-29.4V35.8H38a8.176,8.176,0,0,0-7.4-4.3c-7.5,0-8.9,6.8-8.9,14.4v9.9c0,7.6,1.4,14.4,8.9,14.4A7.994,7.994,0,0,0,38,65.9h.1a4.069,4.069,0,0,0,4.2,4.3c2.5,0,4.2-1.6,4.2-5v-41c0-3.4-1.6-5-4.2-5-2.6.1-4.2,1.7-4.2,5.1"/><path class="a" d="M59.4,36.5V56.4C59.4,61,58,63,55,63c-2.1,0-3.2-1.2-3.2-3.9V36.5c0-3.4-1.6-5-4.2-5s-4.2,1.6-4.2,5V61.1c0,6.3,3.3,9.1,8,9.1a8.308,8.308,0,0,0,7.8-4.8h.1c0,3.2,1.6,4.8,4.2,4.8,2.5,0,4.2-1.6,4.2-5V36.5c0-3.4-1.6-5-4.2-5-2.5,0-4.1,1.6-4.1,5"/><g class="l"><rect class="c" width="24.2" height="38.7" transform="translate(43.5 31.5)"/></g><path class="d" d="M59.4,36.5V56.4C59.4,61,58,63,55,63c-2.1,0-3.2-1.2-3.2-3.9V36.5c0-3.4-1.6-5-4.2-5s-4.2,1.6-4.2,5V61.1c0,6.3,3.3,9.1,8,9.1a8.308,8.308,0,0,0,7.8-4.8h.1c0,3.2,1.6,4.8,4.2,4.8,2.5,0,4.2-1.6,4.2-5V36.5c0-3.4-1.6-5-4.2-5-2.5,0-4.1,1.6-4.1,5"/><path class="a" d="M115.5,54.7V47.4c0-7.4,2.1-9,4.1-9,2.8,0,3.6,2.3,3.6,10.4V54c0,6.1-.4,9.7-3.5,9.7-3.3,0-4.2-3.7-4.2-9m.2-18.2h-.1c0-3.4-1.6-5-4.2-5s-4.2,1.6-4.2,5v42c0,3.4,1.6,5,4.2,5s4.2-1.6,4.2-5V66.1h.1a7.984,7.984,0,0,0,7.4,4.2c7.5,0,8.9-6.8,8.9-14.4V46c0-7.6-1.4-14.4-8.9-14.4a7.992,7.992,0,0,0-7.4,4.9"/><g class="m"><rect class="c" width="24.7" height="52" transform="translate(107.2 31.5)"/></g><path class="d" d="M115.5,54.7V47.4c0-7.4,2.1-9,4.1-9,2.8,0,3.6,2.3,3.6,10.4V54c0,6.1-.4,9.7-3.5,9.7-3.3,0-4.2-3.7-4.2-9m.2-18.2h-.1c0-3.4-1.6-5-4.2-5s-4.2,1.6-4.2,5v42c0,3.4,1.6,5,4.2,5s4.2-1.6,4.2-5V66.1h.1a7.984,7.984,0,0,0,7.4,4.2c7.5,0,8.9-6.8,8.9-14.4V46c0-7.6-1.4-14.4-8.9-14.4a7.992,7.992,0,0,0-7.4,4.9"/><path class="a" d="M94.1,59.3c0-3.1.7-4.4,4.4-7l2.9-2v6.5c0,3.9-1.6,6.9-4.4,6.9-1.7,0-2.9-1.6-2.9-4.4M85.8,41.4c0,2.5,2.5,3.4,4.4,3.4,2.2,0,3.8-1,4-2.7.3-2.9,1.2-4.4,4.1-4.4,2.1,0,3.2,1.7,3.2,3.7,0,1.6-.8,2.9-2.7,3.9l-7.4,3.9c-4.4,2.3-5.9,5.5-5.9,11.1,0,7,3.7,9.9,8.6,9.9a7.975,7.975,0,0,0,7.6-4.6l.1-.1c0,3.6,2.1,4.7,4.4,4.7,2.7,0,4.2-1.1,4.2-3.3,0-1.2-.5-3.1-.5-5.5v-19c0-6-1.2-10.9-12.4-10.9-6.5,0-11.7,3.5-11.7,9.9"/><g class="n"><rect class="c" width="24.9" height="38.7" transform="translate(85.4 31.5)"/></g><path class="d" d="M94.1,59.3c0-3.1.7-4.4,4.4-7l2.9-2v6.5c0,3.9-1.6,6.9-4.4,6.9-1.7,0-2.9-1.6-2.9-4.4M85.8,41.4c0,2.5,2.5,3.4,4.4,3.4,2.2,0,3.8-1,4-2.7.3-2.9,1.2-4.4,4.1-4.4,2.1,0,3.2,1.7,3.2,3.7,0,1.6-.8,2.9-2.7,3.9l-7.4,3.9c-4.4,2.3-5.9,5.5-5.9,11.1,0,7,3.7,9.9,8.6,9.9a7.975,7.975,0,0,0,7.6-4.6l.1-.1c0,3.6,2.1,4.7,4.4,4.7,2.7,0,4.2-1.1,4.2-3.3,0-1.2-.5-3.1-.5-5.5v-19c0-6-1.2-10.9-12.4-10.9-6.5,0-11.7,3.5-11.7,9.9"/><path class="a" d="M65.4,47.5v6.8c0,8.9,1.1,16,12.2,16,9.8,0,11.5-7.8,11.5-11.5,0-3.1-1.6-4.8-4.1-4.8-2.7,0-4,1.3-4.2,6-.1,2.9-1.6,3.8-3.1,3.8-2.7,0-3.5-2.6-3.5-8.7V46.9c0-4.9.2-8.7,3.5-8.7,1.8,0,3.1,1.2,3.1,3.6,0,3.4,1.4,4.7,4.2,4.7,2.3,0,4.1-1.4,4.1-4.7s-2-10.1-11.5-10.1c-11.1-.2-12.2,6.9-12.2,15.8"/><g class="o"><rect class="c" width="23.8" height="38.7" transform="translate(65.4 31.5)"/></g><path class="d" d="M65.4,47.5v6.8c0,8.9,1.1,16,12.2,16,9.8,0,11.5-7.8,11.5-11.5,0-3.1-1.6-4.8-4.1-4.8-2.7,0-4,1.3-4.2,6-.1,2.9-1.6,3.8-3.1,3.8-2.7,0-3.5-2.6-3.5-8.7V46.9c0-4.9.2-8.7,3.5-8.7,1.8,0,3.1,1.2,3.1,3.6,0,3.4,1.4,4.7,4.2,4.7,2.3,0,4.1-1.4,4.1-4.7s-2-10.1-11.5-10.1c-11.1-.2-12.2,6.9-12.2,15.8"/></g></svg>