<svg width="35" height="35" viewBox="0 0 35 35" fill="none" xmlns="http://www.w3.org/2000/svg">
<path id="&#239;&#136;&#176;" d="M32.3884 0.571427H1.89732C0.848214 0.571427 0 1.41964 0 2.46875V32.9598C0 34.0089 0.848214 34.8571 1.89732 34.8571H18.3036V21.5759H13.8393V16.3973H18.3036V12.5804C18.3036 8.16071 21.0268 5.75 24.9777 5.75C26.8527 5.75 28.4821 5.88393 28.9509 5.95089V10.5714L26.2277 10.5938C24.0625 10.5938 23.6607 11.5982 23.6607 13.0937V16.3973H28.7723L28.1027 21.5759H23.6607V34.8571H32.3884C33.4375 34.8571 34.2857 34.0089 34.2857 32.9598V2.46875C34.2857 1.41964 33.4375 0.571427 32.3884 0.571427Z" fill="white"/>
</svg>
