<svg width="36" height="35" viewBox="0 0 36 35" fill="none" xmlns="http://www.w3.org/2000/svg">
<path id="&#239;&#133;&#173;" d="M23.8571 17.7143C23.8571 20.8616 21.2902 23.4286 18.1429 23.4286C14.9955 23.4286 12.4286 20.8616 12.4286 17.7143C12.4286 14.567 14.9955 12 18.1429 12C21.2902 12 23.8571 14.567 23.8571 17.7143ZM26.9375 17.7143C26.9375 12.8482 23.0089 8.91964 18.1429 8.91964C13.2768 8.91964 9.34821 12.8482 9.34821 17.7143C9.34821 22.5804 13.2768 26.5089 18.1429 26.5089C23.0089 26.5089 26.9375 22.5804 26.9375 17.7143ZM29.3482 8.5625C29.3482 7.42411 28.433 6.50893 27.2946 6.50893C26.1562 6.50893 25.2411 7.42411 25.2411 8.5625C25.2411 9.70089 26.1562 10.6161 27.2946 10.6161C28.433 10.6161 29.3482 9.70089 29.3482 8.5625ZM18.1429 3.65179C20.6429 3.65179 26 3.45089 28.2545 4.34375C29.0357 4.65625 29.6161 5.03571 30.2188 5.63839C30.8214 6.24107 31.2009 6.82143 31.5134 7.60268C32.4063 9.85714 32.2054 15.2143 32.2054 17.7143C32.2054 20.2143 32.4063 25.5714 31.5134 27.8259C31.2009 28.6071 30.8214 29.1875 30.2188 29.7902C29.6161 30.3929 29.0357 30.7723 28.2545 31.0848C26 31.9777 20.6429 31.7768 18.1429 31.7768C15.6429 31.7768 10.2857 31.9777 8.03125 31.0848C7.25 30.7723 6.66964 30.3929 6.06696 29.7902C5.46429 29.1875 5.08482 28.6071 4.77232 27.8259C3.87946 25.5714 4.08036 20.2143 4.08036 17.7143C4.08036 15.2143 3.87946 9.85714 4.77232 7.60268C5.08482 6.82143 5.46429 6.24107 6.06696 5.63839C6.66964 5.03571 7.25 4.65625 8.03125 4.34375C10.2857 3.45089 15.6429 3.65179 18.1429 3.65179ZM35.2857 17.7143C35.2857 15.3482 35.308 13.0045 35.1741 10.6384C35.0402 7.89286 34.4152 5.45982 32.4063 3.45089C30.3973 1.44196 27.9643 0.816962 25.2188 0.683035C22.8527 0.549106 20.5089 0.571427 18.1429 0.571427C15.7768 0.571427 13.433 0.549106 11.067 0.683035C8.32143 0.816962 5.88839 1.44196 3.87946 3.45089C1.87054 5.45982 1.24554 7.89286 1.11161 10.6384C0.977679 13.0045 1 15.3482 1 17.7143C1 20.0804 0.977679 22.4241 1.11161 24.7902C1.24554 27.5357 1.87054 29.9687 3.87946 31.9777C5.88839 33.9866 8.32143 34.6116 11.067 34.7455C13.433 34.8795 15.7768 34.8571 18.1429 34.8571C20.5089 34.8571 22.8527 34.8795 25.2188 34.7455C27.9643 34.6116 30.3973 33.9866 32.4063 31.9777C34.4152 29.9687 35.0402 27.5357 35.1741 24.7902C35.308 22.4241 35.2857 20.0804 35.2857 17.7143Z" fill="white"/>
</svg>
